<svg xmlns="http://www.w3.org/2000/svg" style="position:absolute;width:0;height:0;overflow:hidden" aria-hidden="true">
  <defs>
    

    

    
    <symbol id="i-task" viewBox="0 0 32 32">
      <circle cx="16" cy="16" r="3.6" fill="none" stroke="currentColor" stroke-width="2.2" stroke-linecap="round"></circle>
    </symbol>

    
    <symbol id="i-task-done" viewBox="0 0 32 32">
      <g stroke="currentColor" stroke-width="2.4" stroke-linecap="round" fill="none">
        <path d="M11 11 L 21.4 21.2"></path>
        <path d="M21.2 11.2 L 10.8 21.4"></path>
      </g>
    </symbol>

    
    <symbol id="i-task-migrated" viewBox="0 0 32 32">
      <path d="M10 9 L 21 16 L 9.5 23.2" fill="none" stroke="currentColor" stroke-width="2.4" stroke-linecap="round" stroke-linejoin="round"></path>
    </symbol>

    
    <symbol id="i-task-scheduled" viewBox="0 0 32 32">
      <path d="M22 9 L 11 16 L 22.5 23.2" fill="none" stroke="currentColor" stroke-width="2.4" stroke-linecap="round" stroke-linejoin="round"></path>
    </symbol>

    
    <symbol id="i-event" viewBox="0 0 32 32">
      <circle cx="16" cy="16" r="6" fill="none" stroke="currentColor" stroke-width="2.2"></circle>
    </symbol>

    
    <symbol id="i-note" viewBox="0 0 32 32">
      <path d="M7 16 L 25 16" stroke="currentColor" stroke-width="2.6" stroke-linecap="round" fill="none"></path>
    </symbol>

    
    <symbol id="i-priority" viewBox="0 0 32 32">
      <path d="M16 4 l3.4 7.2 l7.6 1 l-5.6 5.4 l1.4 7.6 l-6.8 -3.8 l-6.8 3.8 l1.4 -7.6 l-5.6 -5.4 l7.6 -1 z" fill="none" stroke="currentColor" stroke-width="2" stroke-linejoin="round"></path>
    </symbol>

    
    <symbol id="i-inspire" viewBox="0 0 32 32">
      <path d="M16 5 v 14" stroke="currentColor" stroke-width="2.6" stroke-linecap="round"></path>
      <circle cx="16" cy="24" r="1.6" fill="currentColor"></circle>
    </symbol>

    
    <symbol id="i-discover" viewBox="0 0 32 32">
      <path d="M4 16 q 12 -10 24 0 q -12 10 -24 0 z" fill="none" stroke="currentColor" stroke-width="2"></path>
      <circle cx="16" cy="16" r="3.2" fill="none" stroke="currentColor" stroke-width="2"></circle>
      <circle cx="16" cy="16" r="1.2" fill="currentColor"></circle>
    </symbol>

    
    <symbol id="i-question" viewBox="0 0 32 32">
      <path d="M10 12 q 0 -7 6.5 -7 q 6.5 0 6.5 6 q 0 4 -6 6 v 3" fill="none" stroke="currentColor" stroke-width="2.4" stroke-linecap="round"></path>
      <circle cx="16.5" cy="25.4" r="1.6" fill="currentColor"></circle>
    </symbol>

    
    <symbol id="i-heart" viewBox="0 0 32 32">
      <path d="M16 26 C 6 19 6 9 11.5 9 C 14 9 16 11.4 16 11.4 C 16 11.4 18 9 20.5 9 C 26 9 26 19 16 26 z" fill="none" stroke="currentColor" stroke-width="2" stroke-linejoin="round"></path>
    </symbol>

    
    <symbol id="i-coffee" viewBox="0 0 32 32">
      <g fill="none" stroke="currentColor" stroke-width="2" stroke-linecap="round" stroke-linejoin="round">
        <path d="M7 11 L 7 22 q 0 4 4 4 h 8 q 4 0 4 -4 v -11 z"></path>
        <path d="M23 13 q 4 0 4 4 q 0 4 -4 4"></path>
        <path d="M11 4 q -1 2 0 4 M 16 4 q -1 2 0 4 M 21 4 q -1 2 0 4" opacity="0.7"></path>
      </g>
    </symbol>

    
    <symbol id="i-book" viewBox="0 0 32 32">
      <g fill="none" stroke="currentColor" stroke-width="2" stroke-linejoin="round" stroke-linecap="round">
        <path d="M5 7 q 5 -2 11 0 v 19 q -5 -2 -11 0 z"></path>
        <path d="M27 7 q -5 -2 -11 0 v 19 q 5 -2 11 0 z"></path>
        <path d="M9 12 h 5 M 9 16 h 5 M 18 12 h 5 M 18 16 h 5" opacity="0.6"></path>
      </g>
    </symbol>

    
    <symbol id="i-pencil" viewBox="0 0 32 32">
      <g fill="none" stroke="currentColor" stroke-width="2" stroke-linejoin="round" stroke-linecap="round">
        <path d="M5 27 L 21 11 L 25 15 L 9 31 z" transform="translate(0 -4)"></path>
        <path d="M22 7 L 24 5 q 2 -2 4 0 q 2 2 0 4 L 26 11"></path>
        <path d="M5 23 L 9 27" transform="translate(0 -4)"></path>
      </g>
    </symbol>

    
    <symbol id="i-pen" viewBox="0 0 32 32">
      <g fill="none" stroke="currentColor" stroke-width="2" stroke-linejoin="round" stroke-linecap="round">
        <path d="M6 26 L 18 14 L 22 18 L 10 30 z" transform="translate(0 -4)"></path>
        <path d="M18 14 L 22 18 L 26 14 q 2 -2 0 -4 L 22 6 q -2 -2 -4 0 z"></path>
        <path d="M14 18 L 18 22" transform="translate(0 -4)"></path>
      </g>
    </symbol>

    
    <symbol id="i-sparkle" viewBox="0 0 32 32">
      <g fill="currentColor">
        <path d="M16 4 q 2 8 8 12 q -8 2 -12 12 q -2 -8 -8 -12 q 8 -2 12 -12 z" opacity="0.95"></path>
      </g>
    </symbol>

    
    <symbol id="i-checkbox" viewBox="0 0 32 32">
      <rect x="6" y="6" width="20" height="20" rx="2" fill="none" stroke="currentColor" stroke-width="2.2"></rect>
    </symbol>

    
    <symbol id="i-checkbox-done" viewBox="0 0 32 32">
      <rect x="6" y="6" width="20" height="20" rx="2" fill="none" stroke="currentColor" stroke-width="2.2"></rect>
      <path d="M10 17 L 14.5 21.5 L 23 11" fill="none" stroke="currentColor" stroke-width="2.4" stroke-linecap="round" stroke-linejoin="round"></path>
    </symbol>

    
    <symbol id="i-bulb" viewBox="0 0 32 32">
      <g fill="none" stroke="currentColor" stroke-width="2" stroke-linejoin="round" stroke-linecap="round">
        <path d="M16 4 q -8 0 -8 8 q 0 5 4 7 v 4 h 8 v -4 q 4 -2 4 -7 q 0 -8 -8 -8 z"></path>
        <path d="M12 26 h 8 M 13 29 h 6"></path>
        <path d="M16 12 v 7" opacity="0.6"></path>
      </g>
    </symbol>

    
    <symbol id="i-tag" viewBox="0 0 32 32">
      <g fill="none" stroke="currentColor" stroke-width="2" stroke-linejoin="round">
        <path d="M14 4 L 28 4 L 28 18 L 16 30 L 4 18 z"></path>
        <circle cx="22" cy="10" r="1.6" fill="currentColor"></circle>
      </g>
    </symbol>

    
    <symbol id="i-calendar" viewBox="0 0 32 32">
      <g fill="none" stroke="currentColor" stroke-width="2" stroke-linejoin="round" stroke-linecap="round">
        <rect x="5" y="7" width="22" height="20" rx="2"></rect>
        <path d="M5 13 h 22"></path>
        <path d="M11 4 v 6 M 21 4 v 6"></path>
        <circle cx="12" cy="18" r="0.8" fill="currentColor"></circle>
        <circle cx="16" cy="18" r="0.8" fill="currentColor"></circle>
        <circle cx="20" cy="18" r="0.8" fill="currentColor"></circle>
        <circle cx="12" cy="22" r="0.8" fill="currentColor"></circle>
        <circle cx="16" cy="22" r="0.8" fill="currentColor"></circle>
      </g>
    </symbol>

    
    <symbol id="i-clock" viewBox="0 0 32 32">
      <g fill="none" stroke="currentColor" stroke-width="2" stroke-linecap="round">
        <circle cx="16" cy="16" r="10"></circle>
        <path d="M16 10 v 6 l 4 3"></path>
      </g>
    </symbol>

    
    <symbol id="i-tea" viewBox="0 0 32 32">
      <g fill="none" stroke="currentColor" stroke-width="2" stroke-linecap="round" stroke-linejoin="round">
        <path d="M8 14 q -1 14 8 14 q 9 0 8 -14 z"></path>
        <path d="M14 6 q -2 2 0 4 q 2 2 0 4" opacity="0.7"></path>
        <path d="M20 7 q -1.5 1.5 0 3" opacity="0.7"></path>
      </g>
    </symbol>

    
    <symbol id="i-cloud" viewBox="0 0 32 32">
      <path d="M9 22 q -5 0 -5 -5 q 0 -4 4 -4 q 1 -5 6 -5 q 5 0 6 5 q 5 0 5 5 q 0 5 -5 5 z" fill="none" stroke="currentColor" stroke-width="2" stroke-linejoin="round"></path>
    </symbol>

    
    <symbol id="i-sun" viewBox="0 0 32 32">
      <g fill="none" stroke="currentColor" stroke-width="2" stroke-linecap="round">
        <circle cx="16" cy="16" r="5"></circle>
        <path d="M16 3 v 4 M 16 25 v 4 M 3 16 h 4 M 25 16 h 4 M 6.5 6.5 l 3 3 M 22.5 22.5 l 3 3 M 6.5 25.5 l 3 -3 M 22.5 9.5 l 3 -3"></path>
      </g>
    </symbol>

    
    <symbol id="i-moon" viewBox="0 0 32 32">
      <path d="M22 6 q -10 0 -10 10 q 0 10 10 10 q -8 -2 -8 -10 q 0 -8 8 -10 z" fill="currentColor" stroke="currentColor" stroke-width="1.5" stroke-linejoin="round"></path>
    </symbol>

    
    <symbol id="i-rain" viewBox="0 0 32 32">
      <g fill="none" stroke="currentColor" stroke-width="2" stroke-linecap="round" stroke-linejoin="round">
        <path d="M9 17 q -4 0 -4 -4 q 0 -3 3 -3.5 q 1 -4 5 -4 q 4 0 5 4 q 4 0 4 4 q 0 3.5 -4 3.5 z"></path>
        <path d="M11 21 l -1 4 M 16 21 l -1 4 M 21 21 l -1 4"></path>
      </g>
    </symbol>

    
    <symbol id="i-mountain" viewBox="0 0 32 32">
      <g fill="none" stroke="currentColor" stroke-width="2" stroke-linejoin="round" stroke-linecap="round">
        <path d="M3 26 L 12 10 L 17 18 L 22 12 L 29 26 z"></path>
        <path d="M10 13 L 12 10 L 14 13"></path>
      </g>
    </symbol>

    
    <symbol id="i-plant" viewBox="0 0 32 32">
      <g fill="none" stroke="currentColor" stroke-width="2" stroke-linecap="round" stroke-linejoin="round">
        <path d="M16 28 v -16"></path>
        <path d="M16 18 q -7 -2 -8 -8 q 7 0 8 8 z"></path>
        <path d="M16 14 q 7 -2 8 -10 q -7 1 -8 10 z"></path>
      </g>
    </symbol>

    
    <symbol id="i-music" viewBox="0 0 32 32">
      <g fill="none" stroke="currentColor" stroke-width="2" stroke-linejoin="round" stroke-linecap="round">
        <path d="M11 24 v -16 L 24 5 v 16"></path>
        <ellipse cx="9" cy="24" rx="3.5" ry="2.5" fill="currentColor"></ellipse>
        <ellipse cx="22" cy="21" rx="3.5" ry="2.5" fill="currentColor"></ellipse>
      </g>
    </symbol>

    
    <symbol id="i-camera" viewBox="0 0 32 32">
      <g fill="none" stroke="currentColor" stroke-width="2" stroke-linejoin="round">
        <path d="M4 10 h 6 l 2 -3 h 8 l 2 3 h 6 v 16 h -24 z"></path>
        <circle cx="16" cy="18" r="5"></circle>
        <circle cx="16" cy="18" r="2" fill="currentColor"></circle>
      </g>
    </symbol>

    
    <symbol id="i-envelope" viewBox="0 0 32 32">
      <g fill="none" stroke="currentColor" stroke-width="2" stroke-linejoin="round">
        <rect x="4" y="8" width="24" height="18" rx="1.5"></rect>
        <path d="M4 9 L 16 19 L 28 9"></path>
      </g>
    </symbol>

    
    <symbol id="i-paperclip" viewBox="0 0 32 32">
      <path d="M22 10 L 12 20 q -3 3 0 6 q 3 3 6 0 L 24 14 q 4 -4 0 -8 q -4 -4 -8 0 L 7 14" fill="none" stroke="currentColor" stroke-width="2" stroke-linecap="round"></path>
    </symbol>

    
    <symbol id="i-pin" viewBox="0 0 32 32">
      <g fill="none" stroke="currentColor" stroke-width="2" stroke-linecap="round" stroke-linejoin="round">
        <path d="M12 4 h 8 l -1 4 q 4 1 4 6 h -14 q 0 -5 4 -6 z"></path>
        <path d="M16 16 v 12"></path>
      </g>
    </symbol>

    
    <symbol id="i-scissors" viewBox="0 0 32 32">
      <g fill="none" stroke="currentColor" stroke-width="2" stroke-linecap="round" stroke-linejoin="round">
        <circle cx="9" cy="22" r="4"></circle>
        <circle cx="23" cy="22" r="4"></circle>
        <path d="M12 19 L 28 5"></path>
        <path d="M20 19 L 4 5"></path>
      </g>
    </symbol>

    
    <symbol id="i-compass" viewBox="0 0 32 32">
      <g fill="none" stroke="currentColor" stroke-width="2" stroke-linejoin="round">
        <circle cx="16" cy="16" r="11"></circle>
        <path d="M16 8 L 19 15 L 16 24 L 13 15 z" fill="currentColor"></path>
      </g>
    </symbol>

    
    <symbol id="i-map" viewBox="0 0 32 32">
      <g fill="none" stroke="currentColor" stroke-width="2" stroke-linejoin="round">
        <path d="M4 8 L 12 6 L 20 8 L 28 6 L 28 24 L 20 26 L 12 24 L 4 26 z"></path>
        <path d="M12 6 v 18 M 20 8 v 18" opacity="0.6"></path>
      </g>
    </symbol>

    
    <symbol id="i-globe" viewBox="0 0 32 32">
      <g fill="none" stroke="currentColor" stroke-width="2">
        <circle cx="16" cy="16" r="11"></circle>
        <path d="M5 16 h 22"></path>
        <path d="M16 5 q 6 5 6 11 q 0 6 -6 11 q -6 -5 -6 -11 q 0 -6 6 -11"></path>
      </g>
    </symbol>

    
    <symbol id="i-code" viewBox="0 0 32 32">
      <g fill="none" stroke="currentColor" stroke-width="2.2" stroke-linecap="round" stroke-linejoin="round">
        <path d="M11 8 L 4 16 L 11 24"></path>
        <path d="M21 8 L 28 16 L 21 24"></path>
        <path d="M19 6 L 13 26" opacity="0.7"></path>
      </g>
    </symbol>

    
    <symbol id="i-terminal" viewBox="0 0 32 32">
      <g fill="none" stroke="currentColor" stroke-width="2" stroke-linejoin="round" stroke-linecap="round">
        <rect x="3" y="6" width="26" height="20" rx="2"></rect>
        <path d="M8 13 L 13 17 L 8 21"></path>
        <path d="M16 21 L 24 21"></path>
      </g>
    </symbol>

    
    <symbol id="i-bookmark" viewBox="0 0 32 32">
      <path d="M8 4 h 16 v 24 l -8 -6 l -8 6 z" fill="none" stroke="currentColor" stroke-width="2" stroke-linejoin="round"></path>
    </symbol>

    
    <symbol id="i-bell" viewBox="0 0 32 32">
      <g fill="none" stroke="currentColor" stroke-width="2" stroke-linecap="round" stroke-linejoin="round">
        <path d="M16 4 q -7 0 -7 8 q 0 6 -3 10 h 20 q -3 -4 -3 -10 q 0 -8 -7 -8 z"></path>
        <path d="M13 25 q 0 3 3 3 q 3 0 3 -3"></path>
      </g>
    </symbol>

    
    <symbol id="i-speech" viewBox="0 0 32 32">
      <path d="M5 6 h 22 q 2 0 2 2 v 12 q 0 2 -2 2 h -10 l -6 6 v -6 h -6 q -2 0 -2 -2 v -12 q 0 -2 2 -2 z" fill="none" stroke="currentColor" stroke-width="2" stroke-linejoin="round"></path>
    </symbol>

    
    <symbol id="i-mood-happy" viewBox="0 0 32 32">
      <g fill="none" stroke="currentColor" stroke-width="2" stroke-linecap="round">
        <circle cx="16" cy="16" r="11"></circle>
        <circle cx="12" cy="13.5" r="0.6" fill="currentColor"></circle>
        <circle cx="20" cy="13.5" r="0.6" fill="currentColor"></circle>
        <path d="M11 19 q 5 5 10 0"></path>
      </g>
    </symbol>

    
    <symbol id="i-mood-meh" viewBox="0 0 32 32">
      <g fill="none" stroke="currentColor" stroke-width="2" stroke-linecap="round">
        <circle cx="16" cy="16" r="11"></circle>
        <circle cx="12" cy="13.5" r="0.6" fill="currentColor"></circle>
        <circle cx="20" cy="13.5" r="0.6" fill="currentColor"></circle>
        <path d="M11 21 h 10"></path>
      </g>
    </symbol>

    
    <symbol id="i-mood-sad" viewBox="0 0 32 32">
      <g fill="none" stroke="currentColor" stroke-width="2" stroke-linecap="round">
        <circle cx="16" cy="16" r="11"></circle>
        <circle cx="12" cy="13.5" r="0.6" fill="currentColor"></circle>
        <circle cx="20" cy="13.5" r="0.6" fill="currentColor"></circle>
        <path d="M11 22 q 5 -5 10 0"></path>
      </g>
    </symbol>

    
    <symbol id="i-fire" viewBox="0 0 32 32">
      <path d="M16 4 q 2 6 6 9 q 4 3 4 8 q 0 7 -10 7 q -10 0 -10 -8 q 0 -4 4 -6 q 0 4 3 4 q -2 -8 3 -14 z" fill="none" stroke="currentColor" stroke-width="2" stroke-linejoin="round"></path>
    </symbol>

    
    <symbol id="i-drop" viewBox="0 0 32 32">
      <path d="M16 4 q 8 9 8 15 q 0 8 -8 8 q -8 0 -8 -8 q 0 -6 8 -15 z" fill="none" stroke="currentColor" stroke-width="2" stroke-linejoin="round"></path>
    </symbol>

    
    <symbol id="i-loop" viewBox="0 0 32 32">
      <g fill="none" stroke="currentColor" stroke-width="2" stroke-linecap="round" stroke-linejoin="round">
        <path d="M6 14 q 0 -8 10 -8 q 10 0 10 8 q 0 8 -10 8 H 9"></path>
        <path d="M12 18 L 8 22 L 12 26"></path>
      </g>
    </symbol>

    
    <symbol id="i-quote" viewBox="0 0 32 32">
      <g fill="currentColor">
        <path d="M6 8 q 0 -3 4 -3 v 3 q -2 0 -2 2 h 2 v 7 h -7 v -7 q 0 -2 3 -2 z"></path>
        <path d="M19 8 q 0 -3 4 -3 v 3 q -2 0 -2 2 h 2 v 7 h -7 v -7 q 0 -2 3 -2 z"></path>
      </g>
    </symbol>

    
    <symbol id="i-page" viewBox="0 0 32 32">
      <g fill="none" stroke="currentColor" stroke-width="2" stroke-linejoin="round">
        <path d="M7 4 h 13 l 6 6 v 18 h -19 z"></path>
        <path d="M20 4 v 6 h 6"></path>
        <path d="M11 16 h 10 M 11 20 h 10 M 11 24 h 7" opacity="0.7"></path>
      </g>
    </symbol>

    
    <symbol id="i-rss" viewBox="0 0 32 32">
      <g fill="none" stroke="currentColor" stroke-width="2.2" stroke-linecap="round">
        <path d="M5 12 q 15 0 15 15"></path>
        <path d="M5 19 q 8 0 8 8"></path>
        <circle cx="6.5" cy="25" r="1.6" fill="currentColor"></circle>
      </g>
    </symbol>
  </defs>
</svg>